HIERARCHY
ROOT joint_0
{
	OFFSET 0.000000 0.000000 0.000000
	CHANNELS 6 Xposition Yposition Zposition Zrotation Yrotation Xrotation 
	JOINT joint_1
	{
		OFFSET 11.612000 -0.419000 106.198000
		CHANNELS 3 Zrotation Yrotation Xrotation
		JOINT joint_2
		{
			OFFSET -1.708000 -1.022000 97.564090
			CHANNELS 3 Zrotation Yrotation Xrotation
			JOINT joint_3
			{
				OFFSET -4.121000 -1.538000 97.375000
				CHANNELS 3 Zrotation Yrotation Xrotation
				JOINT joint_4
				{
					OFFSET 5.442000 -2.123000 132.795900
					CHANNELS 3 Zrotation Yrotation Xrotation
					JOINT joint_5
					{
						OFFSET 21.935000 0.195000 82.975100
						CHANNELS 3 Zrotation Yrotation Xrotation
						End Site
						{
							OFFSET 0.000000 0.000000 0.000000
						}
					}
				}
				JOINT joint_6
				{
					OFFSET 4.262000 -30.048000 73.899900
					CHANNELS 3 Zrotation Yrotation Xrotation
					JOINT joint_7
					{
						OFFSET 9.731000 -136.810010 -21.963010
						CHANNELS 3 Zrotation Yrotation Xrotation
						JOINT joint_8
						{
							OFFSET 33.360000 -35.709000 -267.597900
							CHANNELS 3 Zrotation Yrotation Xrotation
							JOINT joint_9
							{
								OFFSET 36.156000 -29.759000 -240.558040
								CHANNELS 3 Zrotation Yrotation Xrotation
								End Site
								{
									OFFSET 0.000000 0.000000 0.000000
								}
							}
						}
					}
				}
				JOINT joint_10
				{
					OFFSET 2.027000 27.734000 74.914920
					CHANNELS 3 Zrotation Yrotation Xrotation
					JOINT joint_11
					{
						OFFSET -5.183000 136.784000 -23.604980
						CHANNELS 3 Zrotation Yrotation Xrotation
						JOINT joint_12
						{
							OFFSET 29.806000 37.229000 -267.809940
							CHANNELS 3 Zrotation Yrotation Xrotation
							JOINT joint_13
							{
								OFFSET 36.890000 46.524990 -237.772030
								CHANNELS 3 Zrotation Yrotation Xrotation
								End Site
								{
									OFFSET 0.000000 0.000000 0.000000
								}
							}
						}
					}
				}
			}
		}
	}
	JOINT joint_14
	{
		OFFSET -7.290000 -102.873990 -124.314940
		CHANNELS 3 Zrotation Yrotation Xrotation
		JOINT joint_15
		{
			OFFSET -15.466000 -19.909010 -438.533020
			CHANNELS 3 Zrotation Yrotation Xrotation
			JOINT joint_16
			{
				OFFSET -26.899000 -18.922000 -464.797000
				CHANNELS 3 Zrotation Yrotation Xrotation
				JOINT joint_17
				{
					OFFSET 179.329000 -12.011000 -84.174000
					CHANNELS 3 Zrotation Yrotation Xrotation
					End Site
					{
						OFFSET 0.000000 0.000000 0.000000
					}
				}
			}
		}
	}
	JOINT joint_18
	{
		OFFSET -6.225000 101.546000 -125.479980
		CHANNELS 3 Zrotation Yrotation Xrotation
		JOINT joint_19
		{
			OFFSET -13.973000 7.996000 -438.963010
			CHANNELS 3 Zrotation Yrotation Xrotation
			JOINT joint_20
			{
				OFFSET -44.294000 5.716000 -463.813970
				CHANNELS 3 Zrotation Yrotation Xrotation
				JOINT joint_21
				{
					OFFSET 178.505000 -4.689000 -85.139000
					CHANNELS 3 Zrotation Yrotation Xrotation
					End Site
					{
						OFFSET 0.000000 0.000000 0.000000
					}
				}
			}
		}
	}
}
MOTION
Frames: 15
Frame Time: 0.016667
-3311.289307 877.267334 1127.264038 -0.205663 -5.685062 0.255035 -0.685060 6.582474 0.523930 -0.758019 -1.351491 -0.153877 -0.703935 1.302017 0.060181 0.035721 -1.380152 -0.117288 0.000000 0.000000 0.000000 0.169969 -1.403423 -0.129969 0.115062 -1.442516 -0.795007 1.184456 -6.506621 2.337750 0.000000 0.000000 0.000000 0.944175 -1.491998 -0.409864 -0.693584 -1.773144 -0.489169 -1.451226 -5.091794 -3.032879 0.000000 0.000000 0.000000 -0.369472 3.258271 0.383032 -0.304902 2.801940 -0.629675 -0.132141 -2.177140 -0.207520 0.000000 0.000000 0.000000 6.167335 4.819820 2.500419 6.167391 -2.271260 0.274628 6.000212 1.726500 2.884819 0.000000 0.000000 0.000000 
-3310.993652 877.226868 1127.243042 -0.172839 -5.641940 0.245831 -0.688289 6.621400 0.534697 -0.761831 -1.362119 -0.154454 -0.707473 1.313101 0.060068 0.036657 -1.440193 -0.120766 0.000000 0.000000 0.000000 0.034028 -1.399918 -0.112028 0.115936 -1.469312 -0.892904 1.310214 -6.999011 2.735485 0.000000 0.000000 0.000000 0.989614 -1.472551 -0.444805 -0.694227 -1.758758 -0.444990 -1.477319 -5.186327 -3.085258 0.000000 0.000000 0.000000 -0.387135 3.236560 0.396296 -0.322695 2.795513 -0.635999 -0.148833 -2.205564 -0.217233 0.000000 0.000000 0.000000 6.162633 4.783719 2.513889 6.163446 -2.271875 0.267104 5.995645 1.726651 2.882756 0.000000 0.000000 0.000000 
-3310.279297 877.196289 1127.229004 -0.131702 -5.547543 0.236247 -0.686792 6.657189 0.567251 -0.761048 -1.360137 -0.159454 -0.706524 1.312910 0.062588 0.040954 -1.558729 -0.136356 0.000000 0.000000 0.000000 -0.211805 -1.362327 -0.176021 0.131789 -1.466688 -0.857386 1.455844 -7.603080 3.154945 0.000000 0.000000 0.000000 1.049607 -1.411395 -0.458957 -0.703217 -1.707963 -0.416624 -1.547068 -5.443936 -3.223805 0.000000 0.000000 0.000000 -0.437852 3.184114 0.395645 -0.376272 2.793261 -0.626208 -0.196780 -2.294849 -0.245654 0.000000 0.000000 0.000000 6.176330 4.693630 2.536841 6.179394 -2.225992 0.257239 6.008051 1.664326 2.887153 0.000000 0.000000 0.000000 
-3309.235840 877.174377 1127.215942 -0.084701 -5.413271 0.226021 -0.680842 6.689960 0.616091 -0.755803 -1.347501 -0.165363 -0.701434 1.302520 0.064959 0.047640 -1.722241 -0.160745 0.000000 0.000000 0.000000 -0.553437 -1.303303 -0.290464 0.160987 -1.449487 -0.723746 1.611922 -8.254560 3.583194 0.000000 0.000000 0.000000 1.121000 -1.323727 -0.466315 -0.715166 -1.633717 -0.396181 -1.636788 -5.770381 -3.409677 0.000000 0.000000 0.000000 -0.513890 3.108541 0.385868 -0.457042 2.792270 -0.605334 -0.268727 -2.427942 -0.288249 0.000000 0.000000 0.000000 6.204816 4.561549 2.566873 6.211275 -2.144215 0.246718 6.034281 1.556012 2.896926 0.000000 0.000000 0.000000 
-3308.031494 877.133240 1127.223999 -0.023287 -5.243341 0.217926 -0.679917 6.746324 0.664769 -0.755942 -1.346781 -0.173679 -0.701199 1.301713 0.069800 0.054128 -1.944097 -0.183973 0.000000 0.000000 0.000000 -0.882416 -1.184090 -0.489141 0.188265 -1.362659 -0.576223 1.915075 -9.702485 4.281934 0.000000 0.000000 0.000000 1.213429 -1.137612 -0.379296 -0.765493 -1.473955 -0.382484 -1.930013 -6.952938 -3.893192 0.000000 0.000000 0.000000 -0.596523 3.003941 0.369221 -0.546810 2.803503 -0.578139 -0.345610 -2.630047 -0.337788 0.000000 0.000000 0.000000 6.224489 4.404494 2.596479 6.234357 -2.068411 0.231076 6.051444 1.417725 2.901625 0.000000 0.000000 0.000000 
-3306.856445 877.070984 1127.267944 0.059022 -5.039819 0.213754 -0.691437 6.846598 0.705344 -0.769295 -1.376428 -0.184030 -0.713156 1.328276 0.076033 0.059133 -2.241522 -0.200847 0.000000 0.000000 0.000000 -1.106839 -0.953476 -0.709273 0.188870 -1.150585 -0.555098 2.460973 -12.508762 5.417284 0.000000 0.000000 0.000000 1.322047 -0.770336 -0.206582 -0.854647 -1.139923 -0.301091 -2.558591 -9.647514 -4.837776 0.000000 0.000000 0.000000 -0.676337 2.858050 0.344139 -0.637474 2.841785 -0.545070 -0.417621 -2.931910 -0.391740 0.000000 0.000000 0.000000 6.218827 4.221365 2.618752 6.231438 -2.011919 0.210530 6.043405 1.249478 2.893583 0.000000 0.000000 0.000000 
-3305.649170 876.997925 1127.342041 0.158858 -4.801654 0.212601 -0.710953 6.979806 0.746107 -0.791278 -1.425958 -0.200007 -0.732838 1.373045 0.084936 0.062637 -2.609157 -0.211071 0.000000 0.000000 0.000000 -1.265133 -0.634349 -0.861206 0.150857 -0.849759 -0.703377 3.173897 -16.359716 6.835931 0.000000 0.000000 0.000000 1.435454 -0.268037 -0.063495 -0.923809 -0.654971 -0.069257 -3.408790 -13.541217 -6.099632 0.000000 0.000000 0.000000 -0.759774 2.673793 0.309875 -0.735200 2.902353 -0.504298 -0.491410 -3.321509 -0.452416 0.000000 0.000000 0.000000 6.196590 4.005934 2.636811 6.211825 -1.958617 0.186557 6.018774 1.046695 2.876760 0.000000 0.000000 0.000000 
-3304.035889 876.846252 1127.428955 0.273588 -4.524912 0.214961 -0.730811 7.126299 0.774641 -0.812991 -1.474706 -0.213305 -0.752459 1.415831 0.093828 0.065122 -3.023971 -0.216806 0.000000 0.000000 0.000000 -1.425763 -0.341652 -1.073260 0.074056 -0.568899 -0.917035 3.992960 -21.073479 8.466460 0.000000 0.000000 0.000000 1.568434 0.176264 0.127744 -0.955253 -0.211742 0.239741 -4.349796 -18.137494 -7.607148 0.000000 0.000000 0.000000 -0.837869 2.480097 0.279365 -0.827356 2.954013 -0.465918 -0.558717 -3.744581 -0.512324 0.000000 0.000000 0.000000 6.162675 3.806662 2.657935 6.180137 -1.972672 0.147033 5.982831 0.851297 2.854773 0.000000 0.000000 0.000000 
-3301.875977 876.577942 1127.530029 0.406023 -4.213271 0.222865 -0.745394 7.285612 0.785125 -0.828067 -1.513952 -0.216786 -0.766586 1.446680 0.096932 0.068063 -3.476854 -0.225496 0.000000 0.000000 0.000000 -1.626070 -0.125536 -1.337632 -0.082356 -0.360933 -1.244444 4.907919 -26.848964 10.332258 0.000000 0.000000 0.000000 1.724450 0.456550 0.370915 -0.932553 0.095483 0.670452 -5.352753 -23.334228 -9.444388 0.000000 0.000000 0.000000 -0.902829 2.296313 0.256126 -0.904284 2.981033 -0.431903 -0.611906 -4.174881 -0.566126 0.000000 0.000000 0.000000 6.118417 3.653563 2.685913 6.137597 -2.091422 0.082068 5.937081 0.691142 2.829050 0.000000 0.000000 0.000000 
-3299.311523 876.220947 1127.652954 0.557188 -3.868320 0.235855 -0.756747 7.461668 0.785572 -0.838683 -1.544043 -0.212418 -0.777449 1.468049 0.091828 0.071573 -3.975025 -0.238769 0.000000 0.000000 0.000000 -1.833625 0.009445 -1.438060 -0.382128 -0.244402 -1.862208 5.862632 -33.646571 12.376929 0.000000 0.000000 0.000000 1.889424 0.591767 0.509558 -0.804168 0.317494 1.369979 -6.403705 -29.238410 -11.605364 0.000000 0.000000 0.000000 -0.958538 2.111890 0.235641 -0.971185 2.994188 -0.398217 -0.654619 -4.631317 -0.616786 0.000000 0.000000 0.000000 6.062282 3.527721 2.719078 6.082879 -2.289890 -0.004057 5.880186 0.551576 2.798525 0.000000 0.000000 0.000000 
-3295.868408 875.742188 1127.733032 0.709403 -3.457387 0.244410 -0.769242 7.602212 0.776355 -0.848700 -1.565379 -0.205486 -0.788077 1.482123 0.087620 0.074385 -4.497129 -0.250930 0.000000 0.000000 0.000000 -2.011704 -0.056407 -1.493373 -0.811575 -0.313829 -2.593323 6.706729 -40.512449 14.450938 0.000000 0.000000 0.000000 2.035230 0.490168 0.666308 -0.601884 0.347121 2.080216 -7.369589 -35.237028 -13.709796 0.000000 0.000000 0.000000 -1.012068 1.918680 0.245034 -1.033055 2.976275 -0.386372 -0.695731 -5.067427 -0.665347 0.000000 0.000000 0.000000 5.998819 3.433507 2.765049 6.019910 -2.593913 -0.101614 5.818296 0.441611 2.766232 0.000000 0.000000 0.000000 
-3291.223877 875.135071 1127.750977 0.846082 -2.950689 0.235761 -0.781885 7.668697 0.765456 -0.856690 -1.569161 -0.206220 -0.796398 1.481582 0.091071 0.073340 -5.035887 -0.248901 0.000000 0.000000 0.000000 -2.129113 -0.359219 -1.617436 -1.398967 -0.578763 -3.384755 7.403327 -47.181434 16.642966 0.000000 0.000000 0.000000 2.134194 0.101845 0.932162 -0.345773 0.125847 2.683663 -8.222371 -41.120193 -15.603811 0.000000 0.000000 0.000000 -1.066750 1.706006 0.313476 -1.091091 2.908572 -0.418407 -0.740022 -5.447909 -0.711667 0.000000 0.000000 0.000000 5.931117 3.382269 2.835570 5.951323 -3.051091 -0.208455 5.756802 0.376056 2.734932 0.000000 0.000000 0.000000 
-3285.563477 874.413086 1127.734009 0.974178 -2.359743 0.212141 -0.793508 7.679566 0.757262 -0.861298 -1.554253 -0.215489 -0.801196 1.465254 0.098954 0.069242 -5.601047 -0.236615 0.000000 0.000000 0.000000 -2.197612 -0.914585 -1.691384 -2.200570 -1.058521 -4.335618 7.971103 -53.982404 18.987570 0.000000 0.000000 0.000000 2.193554 -0.587166 1.198561 -0.004241 -0.344578 3.307516 -9.004546 -47.059121 -17.398007 0.000000 0.000000 0.000000 -1.120393 1.475661 0.432979 -1.143872 2.797365 -0.486608 -0.784924 -5.784687 -0.755312 0.000000 0.000000 0.000000 5.857143 3.370494 2.929855 5.875577 -3.651662 -0.327745 5.695236 0.360433 2.704411 0.000000 0.000000 0.000000 
-3278.887207 873.513062 1127.562988 1.115758 -1.718714 0.196983 -0.821198 7.638566 0.731353 -0.879569 -1.528992 -0.215554 -0.820275 1.441745 0.101130 0.065374 -6.145409 -0.220774 0.000000 0.000000 0.000000 -2.255606 -1.796855 -1.702150 -3.074529 -1.802996 -5.106724 8.401382 -60.348560 21.020683 0.000000 0.000000 0.000000 2.231027 -1.529409 1.478640 0.357288 -1.038375 3.709009 -9.713373 -52.838735 -18.804265 0.000000 0.000000 0.000000 -1.176647 1.252356 0.561839 -1.197880 2.670419 -0.556697 -0.833738 -6.076703 -0.797742 0.000000 0.000000 0.000000 5.774546 3.361243 3.024794 5.790879 -4.264609 -0.436080 5.630242 0.380774 2.672682 0.000000 0.000000 0.000000 
-3271.151367 872.392700 1127.134033 1.288766 -1.031975 0.210044 -0.877379 7.537157 0.671922 -0.923762 -1.510861 -0.199640 -0.865697 1.425291 0.092933 0.065461 -6.656107 -0.204062 0.000000 0.000000 0.000000 -2.323511 -3.050311 -1.614286 -3.893708 -2.801629 -5.484757 8.759779 -66.064625 22.438569 0.000000 0.000000 0.000000 2.238310 -2.687765 1.727467 0.681009 -1.906049 3.775853 -10.402918 -58.584501 -19.549083 0.000000 0.000000 0.000000 -1.235884 1.040845 0.669822 -1.255446 2.533464 -0.605929 -0.887676 -6.312519 -0.838741 0.000000 0.000000 0.000000 5.679061 3.341831 3.100536 5.692151 -4.861138 -0.522281 5.557120 0.461041 2.638086 0.000000 0.000000 0.000000 
